<?xml version="1.0" standalone="no"?><!DOCTYPE svg PUBLIC "-//W3C//DTD SVG 1.1//EN" "http://www.w3.org/Graphics/SVG/1.1/DTD/svg11.dtd"><svg class="icon" width="128px" height="128.00px" viewBox="0 0 1024 1024" version="1.1" xmlns="http://www.w3.org/2000/svg"><path d="M852.842667 634.901333a359.744 359.744 0 0 0 18.218666-172.266666 362.666667 362.666667 0 1 0-359.210666 412.202666v64a427.456 427.456 0 1 1 401.066666-282.048 32 32 0 0 1-43.370666 18.048 31.850667 31.850667 0 0 1-16.704-39.936z m-2.709334 258.026667c0.448 1.002667 0.853333 1.962667 1.216 2.986667a32 32 0 0 1 1.877334 9.621333v1.066667a32 32 0 0 1-32 32H512v-64h232.533333l-51.370666-51.370667a31.872 31.872 0 0 1 0-45.098667l0.149333-0.149333a31.872 31.872 0 0 1 45.098667 0l105.685333 105.664c0.554667 0.576 0.746667 1.322667 1.28 1.92a32.384 32.384 0 0 1 4.757333 7.36z" fill="#07C160" /><path d="M629.461333 548.266667h-86.378666v-52.330667h86.378666a30.378667 30.378667 0 1 0 0-60.714667h-48.298666l65.621333-62.869333a26.261333 26.261333 0 0 0 8.085333-19.2 32.234667 32.234667 0 0 0-52.736-23.872l-90.666666 86.890667-88.917334-85.333334a32.64 32.64 0 0 0-44.650666 0 29.610667 29.610667 0 0 0 0 43.008l63.872 61.205334h-48.277334a30.378667 30.378667 0 1 0 0 60.714666h86.378667V548.266667h-86.378667a30.4 30.4 0 1 0 0 60.736h86.378667v63.872a31.637333 31.637333 0 0 0 63.210667 0v-63.872h86.378666a30.4 30.4 0 1 0 0-60.736z" fill="#07C160" /></svg>
