<?xml version="1.0" standalone="no"?><!DOCTYPE svg PUBLIC "-//W3C//DTD SVG 1.1//EN" "http://www.w3.org/Graphics/SVG/1.1/DTD/svg11.dtd"><svg t="1621671340555" class="icon" viewBox="0 0 1024 1024" version="1.1" xmlns="http://www.w3.org/2000/svg" p-id="7272" xmlns:xlink="http://www.w3.org/1999/xlink" width="128" height="128"><defs><style type="text/css"></style></defs><path d="M512 0.018431C229.237065 0.018431 0.017919 229.237577 0.017919 512.000512c0 282.762935 229.219146 511.982081 511.982081 511.982081 282.740408 0 511.982081-229.218122 511.982081-511.982081C1023.982081 229.237577 794.740408 0.018431 512 0.018431zM763.491257 361.028142c-44.930254 60.066401-204.83461 247.672917-286.922252 333.17034-36.066873 28.453745-54.04348 13.272544-62.407169 5.432097-50.225141-50.930648-113.360344-133.01829-140.199308-172.607579-5.885711-5.864208-4.022107-12.431874 0.97788-17.794342 8.317611-8.636062 20.953253-21.772419 29.180756-30.249768 6.681326-5.749524 11.636259-5.067568 19.544287 0.681956 25.498603 19.862738 86.269487 67.224892 109.382267 85.224026 12.181005 9.499259 5.318438 10.635852 20.567221-3.432307 45.634737-42.08877 214.561187-197.85736 264.172977-243.628283 17.953056-14.294454 32.589512 6.794985 25.589735-0.477164 5.182252 5.363492 15.226256 15.817079 20.408507 21.225626C767.945474 343.119116 770.241188 353.482595 763.491257 361.028142z" p-id="7273" fill="#ffffff"></path></svg>